<?xml version="1.0" encoding="utf-8"?>
<!-- Generator: Adobe Illustrator 27.4.0, SVG Export Plug-In . SVG Version: 6.00 Build 0)  -->
<svg version="1.1" id="a" xmlns="http://www.w3.org/2000/svg" xmlns:xlink="http://www.w3.org/1999/xlink" x="0px" y="0px"
	 viewBox="0 0 1063.7 608.8" style="enable-background:new 0 0 1063.7 608.8;" xml:space="preserve">
<style type="text/css">
	.st0{fill:url(#SVGID_1_);}
	.st1{fill:url(#SVGID_00000119798967036223486040000016350750886130314146_);}
	.st2{fill:url(#SVGID_00000111897052394727848690000000658200109210828727_);}
	.st3{fill:url(#SVGID_00000067934767274333916080000010737692368895977632_);}
</style>
<linearGradient id="SVGID_1_" gradientUnits="userSpaceOnUse" x1="929.1924" y1="310.0674" x2="902.1025" y2="1110.1774" gradientTransform="matrix(6.123234e-17 1 -1 6.123234e-17 1189.4376 -577.4424)">
	<stop  offset="0" style="stop-color:#77DBFE"/>
	<stop  offset="0.99" style="stop-color:#6DECC7"/>
</linearGradient>
<path class="st0" d="M462.1,608.3c-1.2-0.1-2.5-0.3-3.7-0.4c-31.2-4-55-21.8-75.2-43.8c-12.6-13.6-23.8-28.8-34.6-43.3
	c-28-37.4-57.4-73.8-86.1-110.5C243.3,385.8,70.3,162.1,3.3,76.6C-5.5,65.3,4.5,49.1,18.5,52c49.6,10,129.7,26.2,158.8,32.1
	c7.1,1.4,13.4,5.4,17.8,11.1l254.3,330.9c12,15.6,35.6,15.6,47.6,0l103.4-134.9c5.7-7.4,14.5-11.7,23.8-11.7l108.1-0.1
	c9.4,0,18.2,4.4,23.9,11.8L810,362c11.9,15.6,35.4,15.8,47.5,0.3L936.6,261c7.6-9.8,20.5-13.8,32.3-10.2l54.9,16.6
	c19.6,5.9,27.6,29.3,15.8,46c-8.2,11.5-16.3,23.1-24.5,34.5c-23.4,32.7-46.9,65.4-70.3,98.1c-16.1,22.4-31.3,42.8-56.6,55.5
	c-37,18.6-82.6,17.7-120-6.2c-23.7-15.2-38.1-40-53.7-63L691,397.3c-43.4,56.7-94.5,123.4-119.4,155.3
	C544.2,587.9,509.2,612.8,462.1,608.3L462.1,608.3z"/>
<linearGradient id="SVGID_00000122682186770731844620000008336860173475640199_" gradientUnits="userSpaceOnUse" x1="989.8921" y1="603.2955" x2="854.7021" y2="469.3355" gradientTransform="matrix(6.123234e-17 1 -1 6.123234e-17 1189.4376 -577.4424)">
	<stop  offset="6.000000e-02" style="stop-color:#72E3E4"/>
	<stop  offset="0.17" style="stop-color:#70DEDF"/>
	<stop  offset="0.29" style="stop-color:#6AD0D1"/>
	<stop  offset="0.43" style="stop-color:#60B9B9"/>
	<stop  offset="0.57" style="stop-color:#529898"/>
	<stop  offset="0.72" style="stop-color:#406E6D"/>
	<stop  offset="0.88" style="stop-color:#2A3B3A"/>
	<stop  offset="0.96" style="stop-color:#1D1D1B"/>
</linearGradient>
<path style="fill:url(#SVGID_00000122682186770731844620000008336860173475640199_);" d="M691,397.3c0,0-69.8-100.8-79.6-115
	c-18.9,7.6-72.6,89.2-72.6,89.2l95.4,99.9L691,397.3L691,397.3z"/>
<linearGradient id="SVGID_00000099663397073912042610000012718690960615110837_" gradientUnits="userSpaceOnUse" x1="943.9267" y1="270.1108" x2="743.4567" y2="71.4609" gradientTransform="matrix(6.123234e-17 1 -1 6.123234e-17 1189.4376 -577.4424)">
	<stop  offset="6.000000e-02" style="stop-color:#77DBFE"/>
	<stop  offset="0.16" style="stop-color:#75D7F9"/>
	<stop  offset="0.28" style="stop-color:#6FCBEB"/>
	<stop  offset="0.41" style="stop-color:#66B7D3"/>
	<stop  offset="0.54" style="stop-color:#599BB2"/>
	<stop  offset="0.68" style="stop-color:#487787"/>
	<stop  offset="0.82" style="stop-color:#334C54"/>
	<stop  offset="0.96" style="stop-color:#1D1D1B"/>
</linearGradient>
<path style="fill:url(#SVGID_00000099663397073912042610000012718690960615110837_);" d="M1063.7,279.4c0,0-90.8-27.9-114.5-34.7
	l-57.5,73c-9.4,11.9-8.4,28.9,2.3,39.6l41.2,41.6c13.1,13.2,34.9,11.4,45.7-3.7L1063.7,279.4L1063.7,279.4z"/>
<linearGradient id="SVGID_00000034052927663367476620000007408410117927974306_" gradientUnits="userSpaceOnUse" x1="1443.9939" y1="1927.1329" x2="2327.054" y2="2159.8127" gradientTransform="matrix(-1 0 0 -1 2452.52 2126.2852)">
	<stop  offset="0" style="stop-color:#77DBFE"/>
	<stop  offset="0.94" style="stop-color:#6DECC7"/>
</linearGradient>
<path style="fill:url(#SVGID_00000034052927663367476620000007408410117927974306_);" d="M479.2,15.4v92.9c0,6.9,4.7,13.1,11.4,14.9
	l573.2,156.3V171c0-13.6-9.2-25.6-22.4-29L498.5,0.5C488.7-2,479.2,5.3,479.2,15.4z"/>
</svg>
